<svg id="Layer_1" data-name="Layer 1" xmlns="http://www.w3.org/2000/svg" viewBox="0 0 144.35 143.7"><defs><style>.cls-1{fill:#fedb2e;}</style></defs><path class="cls-1" d="M146.48,74.75a12.57,12.57,0,0,1-3.32-2.93,27.55,27.55,0,0,1-2.22-4c-1.56-3.19-3.31-6.7-6.72-7.79,2.28-2.59,2.14-6.41,2-9.87a26.49,26.49,0,0,1,0-4.56,12.7,12.7,0,0,1,1.48-4.17,1.4,1.4,0,0,0,0-1.45,1.44,1.44,0,0,0-1.3-.67,9.72,9.72,0,0,1-4.21-.94,25.57,25.57,0,0,1-4-2.41c-3-2-6.26-4.23-9.78-3.39,1.06-3.62-1.18-7.05-3.2-10.12a26.86,26.86,0,0,1-2.29-3.95,12.55,12.55,0,0,1-.84-4.34,1.4,1.4,0,0,0-2.2-1.16,10,10,0,0,1-4.11,1.32,26.16,26.16,0,0,1-4.66-.05c-3.56-.24-7.51-.48-10.12,2-1-3.53-4.6-5.32-7.85-6.91a26.51,26.51,0,0,1-4-2.22A12.74,12.74,0,0,1,76.2,3.85a1.38,1.38,0,0,0-1.28-.7A1.44,1.44,0,0,0,73.71,4,9.62,9.62,0,0,1,70.85,7.2a25.5,25.5,0,0,1-4,2.34c-3.14,1.58-6.6,3.37-7.63,6.75C56.61,13.57,52.55,13.77,48.9,14a25.81,25.81,0,0,1-4.67,0,9.93,9.93,0,0,1-4.08-1.38,1.4,1.4,0,0,0-1.46-.12,1.38,1.38,0,0,0-.77,1.24A12.76,12.76,0,0,1,37,18a27.46,27.46,0,0,1-2.36,3.91c-2,2.95-4.19,6.23-3.41,9.74-3.43-.75-6.69,1.35-9.61,3.28a25.62,25.62,0,0,1-4,2.35,10,10,0,0,1-4.21.88A1.4,1.4,0,0,0,12,40.27a12.65,12.65,0,0,1,1.42,4.19,25.87,25.87,0,0,1,0,4.55c-.24,3.66-.49,7.73,2.19,10.36-3.27,1.14-5,4.56-6.5,7.68a25.67,25.67,0,0,1-2.27,4.08A9.89,9.89,0,0,1,3.64,74a1.4,1.4,0,0,0-.09,2.5A12.75,12.75,0,0,1,6.9,79.41a26.08,26.08,0,0,1,2.28,4c1.52,3,3.24,6.28,6.32,7.49-2.37,2.58-2.2,6.44-2,9.93a25.7,25.7,0,0,1,0,4.66,10,10,0,0,1-1.38,4.08A1.38,1.38,0,0,0,12,111a1.41,1.41,0,0,0,1.25.78,12.72,12.72,0,0,1,4.33.9,26.37,26.37,0,0,1,3.9,2.35c2.54,1.72,5.32,3.61,8.28,3.61a6.68,6.68,0,0,0,1.46-.17c-.74,3.42,1.36,6.67,3.29,9.59a26.36,26.36,0,0,1,2.35,4,9.71,9.71,0,0,1,.87,4.21,1.41,1.41,0,0,0,.64,1.33,1.4,1.4,0,0,0,1.46,0A12.5,12.5,0,0,1,44,136.23a26,26,0,0,1,4.56.05c3.65.23,7.73.48,10.35-2.19,1.14,3.26,4.57,5,7.69,6.49a25.55,25.55,0,0,1,4.07,2.27,10,10,0,0,1,2.9,3.18,1.41,1.41,0,0,0,1.22.82h.06a1.4,1.4,0,0,0,1.22-.72,12.51,12.51,0,0,1,2.89-3.35,26.45,26.45,0,0,1,3.94-2.28c2.94-1.5,6.16-3.17,7.43-6.14,2.62,2.77,6.74,2.49,10.42,2.22a26.47,26.47,0,0,1,4.67-.08,10.05,10.05,0,0,1,4.1,1.3,1.39,1.39,0,0,0,.81.26,1.49,1.49,0,0,0,.65-.16,1.4,1.4,0,0,0,.75-1.26,12.58,12.58,0,0,1,.82-4.35,25.76,25.76,0,0,1,2.27-3.95c1.84-2.84,3.83-6,3.31-9.27a6.88,6.88,0,0,0,1.34.15c2.89,0,5.65-1.8,8.16-3.44a25.4,25.4,0,0,1,4-2.33,10.2,10.2,0,0,1,4.22-.86,1.39,1.39,0,0,0,1.32-.62,1.41,1.41,0,0,0,0-1.47,12.6,12.6,0,0,1-1.4-4.19,27.14,27.14,0,0,1,.07-4.56c.25-3.49.47-7.35-1.82-10,3.34-1.05,5.12-4.49,6.7-7.62a25.5,25.5,0,0,1,2.34-4,10.07,10.07,0,0,1,3.22-2.86,1.4,1.4,0,0,0,.14-2.49ZM77.7,127l14-24.16h27.66A52.31,52.31,0,0,1,77.7,127ZM31.15,102.84H58.8l14,24.16A52.29,52.29,0,0,1,31.15,102.84ZM23,74.78a52,52,0,0,1,5.8-23.9l13.82,23.9L28.75,98.67A52,52,0,0,1,23,74.78ZM72.78,22.55l-14,24.16H31.15A52.32,52.32,0,0,1,72.78,22.55Zm46.54,24.16H91.68l-14-24.16A52.3,52.3,0,0,1,119.32,46.71ZM90.06,100H60.41L45.81,74.78,60.42,49.51H90.06l14.61,25.26Zm16.23-22.47,13,22.47h-26Zm-31.06,48.1L62,102.84H88.44ZM57.18,100h-26l13-22.47ZM44.19,72l-13-22.47h26ZM62,46.71l13.2-22.82,13.2,22.82Zm31.26,2.8h26L106.29,72Zm28.42,49.16-13.81-23.9,13.81-23.89a52,52,0,0,1,0,47.79Zm4.87-60.37A28.29,28.29,0,0,0,131.06,41a14.62,14.62,0,0,0,3.28,1,13.57,13.57,0,0,0-.9,3.28,28.5,28.5,0,0,0-.05,5.07c.22,4.41.17,7.4-2.41,8.84a14.93,14.93,0,0,1-2.65.94,55,55,0,0,0-12.69-22.72,14.63,14.63,0,0,1,2.28-1.65C120.43,34.33,123,35.84,126.59,38.3ZM100.9,17.09a29.08,29.08,0,0,0,5.19,0,14.62,14.62,0,0,0,3.34-.8,14.13,14.13,0,0,0,.89,3.29A28.36,28.36,0,0,0,112.85,24c2.42,3.69,3.9,6.3,2.41,8.84a15.35,15.35,0,0,1-1.89,2.24A55.08,55.08,0,0,0,90.94,22a14.83,14.83,0,0,1,1.18-2.7C93.58,16.79,96.54,16.79,100.9,17.09ZM68.08,12a28.56,28.56,0,0,0,4.49-2.62A14.86,14.86,0,0,0,75,7a14.21,14.21,0,0,0,2.44,2.38,29.27,29.27,0,0,0,4.41,2.48c4,1.95,6.57,3.44,6.58,6.39A16.18,16.18,0,0,1,88,21.19a55.1,55.1,0,0,0-12.73-1.5h0A55,55,0,0,0,62,21.31a15.1,15.1,0,0,1-.36-2.92C61.63,15.51,64.18,14,68.08,12ZM37,23.49a29.39,29.39,0,0,0,2.6-4.35,13.24,13.24,0,0,0,.93-3.28,14.41,14.41,0,0,0,3.33.85,28.13,28.13,0,0,0,5.2.05c4.35-.23,7.32-.19,8.74,2.32A15,15,0,0,1,59,22.13,55.15,55.15,0,0,0,37,35.21a16.3,16.3,0,0,1-2.53-2.92C33,29.73,34.5,27.14,37,23.49ZM18.68,39.88a28.24,28.24,0,0,0,4.5-2.6c3.64-2.4,6.22-3.87,8.71-2.42a13.52,13.52,0,0,1,3,2.44A55,55,0,0,0,22.36,59.38l-.13-.05a17.27,17.27,0,0,1-3.76-1.25c-2.56-1.48-2.56-4.48-2.28-8.89a28.58,28.58,0,0,0,0-5.06,13.8,13.8,0,0,0-.85-3.3A14.47,14.47,0,0,0,18.68,39.88Zm-7,42.21a28.76,28.76,0,0,0-2.56-4.38,14,14,0,0,0-2.41-2.4,15.31,15.31,0,0,0,2.35-2.5,27.52,27.52,0,0,0,2.55-4.53c1.91-3.93,3.38-6.5,6.26-6.53a15.2,15.2,0,0,1,3.73.53,54.78,54.78,0,0,0,.11,25.5,14.55,14.55,0,0,0-2,.56,11.22,11.22,0,0,1-1.58.23C15.25,88.65,13.68,86,11.68,82.09ZM23,112.69a28,28,0,0,0-4.35-2.59,13.67,13.67,0,0,0-3.27-.94,14.79,14.79,0,0,0,.85-3.33,28,28,0,0,0,0-5.19c-.22-4.36-.18-7.33,2.33-8.75a14.63,14.63,0,0,1,1.87-.84c.71-.15,1.42-.33,2-.51a54.89,54.89,0,0,0,12.61,21.87,1.44,1.44,0,0,0-.27.22,17.13,17.13,0,0,1-3,2.61C29.24,116.69,26.66,115.17,23,112.69Zm25.71,20.79a28.67,28.67,0,0,0-5.07,0,13.26,13.26,0,0,0-3.29.85,15,15,0,0,0-1-3.3,28.49,28.49,0,0,0-2.59-4.5c-2.41-3.65-3.87-6.22-2.43-8.72a14.29,14.29,0,0,1,2.53-3.11,1,1,0,0,0,.18-.22,55,55,0,0,0,21.79,12.93l0,.06a17,17,0,0,1-1.25,3.77C56.11,133.76,53.11,133.76,48.71,133.48ZM81.6,138a28.61,28.61,0,0,0-4.37,2.55A13.4,13.4,0,0,0,74.82,143a14.53,14.53,0,0,0-2.5-2.36,28.27,28.27,0,0,0-4.53-2.55c-3.92-1.91-6.5-3.37-6.53-6.26a14.55,14.55,0,0,1,.5-3.61,54.7,54.7,0,0,0,25.75.28,15.54,15.54,0,0,1,.57,3.05C88.11,134.47,85.54,136,81.6,138Zm30.84-11.19a29.63,29.63,0,0,0-2.51,4.4,14,14,0,0,0-.87,3.3,14.81,14.81,0,0,0-3.34-.79,29.25,29.25,0,0,0-5.2.06c-4.34.32-7.31.34-8.79-2.15a13.87,13.87,0,0,1-1.47-3.73s0,0,0,0l0-.1a55,55,0,0,0,22.19-12.39,14.28,14.28,0,0,0,1.44,1.36,8.86,8.86,0,0,1,1,1.21C116.31,120.49,114.84,123.11,112.44,126.81Zm18.14-16a28.1,28.1,0,0,0-4.51,2.57c-3.66,2.39-6.24,3.85-8.73,2.39a14.63,14.63,0,0,1-1.51-1.06c-.45-.51-.91-1-1.34-1.38a55.19,55.19,0,0,0,13.23-21.85,15.63,15.63,0,0,1,3.16,1.14c2.55,1.48,2.54,4.48,2.23,8.89a28.63,28.63,0,0,0-.06,5.06,13.69,13.69,0,0,0,.84,3.3A15,15,0,0,0,130.58,110.86ZM140.9,78.38a28.56,28.56,0,0,0-2.62,4.49c-2,3.89-3.46,6.44-6.33,6.44h0a14.66,14.66,0,0,1-3.41-.5A54.92,54.92,0,0,0,129.05,63a14.81,14.81,0,0,1,3-.51c3,0,4.45,2.61,6.39,6.58a29.27,29.27,0,0,0,2.48,4.41,14.21,14.21,0,0,0,2.38,2.44A14.86,14.86,0,0,0,140.9,78.38Z" transform="translate(-2.83 -3.15)"/></svg>