<svg id="Object" xmlns="http://www.w3.org/2000/svg" viewBox="0 0 791.31 791.3"><defs><style>.cls-1{fill:#fff;}.cls-2{fill:none;}</style></defs><path class="cls-1" d="M131.33,742.73c-26.12,0-46.88-7.15-61.24-21.51-32.1-32.09-28.17-96.17,11-180.43C120.09,457,189.38,363,276.18,276.24S457,120.15,540.79,81.14c84.26-39.22,148.33-43.14,180.43-11s28.16,96.17-11.06,180.43c-39,83.8-108.29,177.75-195.09,264.55s-180.75,156-264.55,195C204,731.83,163.57,742.73,131.33,742.73ZM660,51.58c-90.2,0-241.85,87-381.6,226.78C100,456.67,7.53,654.42,72.21,719.1c14,14,34.22,20.63,59.13,20.63,90.21,0,241.85-87,381.61-226.78C691.3,334.6,783.77,136.89,719.1,72.21,705.1,58.22,684.87,51.58,660,51.58Z" transform="translate(0 -0.01)"/><path class="cls-1" d="M611.49,177.69l-48.85,48.85.06,0a5.4,5.4,0,0,1,1.74,2.4l49.22-49.22A4.63,4.63,0,0,1,611.49,177.69Z" transform="translate(0 -0.01)"/><path class="cls-1" d="M655,134.19l-17.18,17.18a5.56,5.56,0,0,1,2.4,1.84l17.1-17.1A5.24,5.24,0,0,1,655,134.19Z" transform="translate(0 -0.01)"/><path class="cls-1" d="M790.86.44a1.51,1.51,0,0,0-2.12,0L698.82,90.36a5.6,5.6,0,0,1,1.77,2.47L790.86,2.56h0A1.49,1.49,0,0,0,790.86.44Z" transform="translate(0 -0.01)"/><path class="cls-1" d="M178.5,614.93l50.72-50.73a4.61,4.61,0,0,1-1.85-2.39L176,613.22A7.21,7.21,0,0,1,178.5,614.93Z" transform="translate(0 -0.01)"/><path class="cls-1" d="M87.34,701.85.44,788.75h0a1.49,1.49,0,0,0,0,2.11,1.51,1.51,0,0,0,2.12,0l87.09-87.09A5.44,5.44,0,0,1,87.34,701.85Z" transform="translate(0 -0.01)"/><path class="cls-1" d="M133.19,659.78a2.41,2.41,0,0,1,.21.24L152,641.42a5.62,5.62,0,0,1-1.68-1.65,4.25,4.25,0,0,1-.31-.6l-19.31,19.31A5.28,5.28,0,0,1,133.19,659.78Z" transform="translate(0 -0.01)"/><circle class="cls-2" cx="395.65" cy="395.64" r="237.04"/><path class="cls-1" d="M395.65,753.89c-197.9-.13-358.23-160.66-358.1-358.56A358.33,358.33,0,0,1,256.21,65.57C438.7-11,648.7,74.87,725.27,257.36c76.31,181.86-8.69,391.19-190.18,468.38A356,356,0,0,1,395.65,753.89Zm0-713.47c-196.19,0-355.24,159.05-355.23,355.25a355.21,355.21,0,0,0,104,251.18C283.07,785.7,508,785.91,646.85,647.3s139-363.53.45-502.38l-.46-.46A352.89,352.89,0,0,0,395.65,40.42Z" transform="translate(0 -0.01)"/><path class="cls-1" d="M155.76,613.64a324.09,324.09,0,0,1-1.4-434.41,5.46,5.46,0,0,1-2-2.26,327.1,327.1,0,0,0,.94,438.44A4.73,4.73,0,0,1,155.76,613.64Z" transform="translate(0 -0.01)"/><path class="cls-1" d="M612.34,636.73C489.68,747.17,303,747.46,180,637.65a4.21,4.21,0,0,1-2.28,2,327.21,327.21,0,0,0,436.6-.59A5.78,5.78,0,0,1,612.34,636.73Z" transform="translate(0 -0.01)"/><path class="cls-1" d="M638.36,176.33a4.49,4.49,0,0,1-2.27,2c111,122.57,111.57,309.49,1.75,432.74a6.47,6.47,0,0,1,1.86,2.45C750.94,489.16,750.47,300.19,638.36,176.33Z" transform="translate(0 -0.01)"/><path class="cls-1" d="M613.2,151.35C489,40.53,300.51,40.91,176.75,152.54a4.36,4.36,0,0,1,1.08.79,4.84,4.84,0,0,1,1,1.4,324.14,324.14,0,0,1,432.53-1A4.61,4.61,0,0,1,613.2,151.35Z" transform="translate(0 -0.01)"/><path class="cls-1" d="M395.65,694C230.91,694,97.37,560.4,97.38,395.66S230.93,97.39,395.67,97.39,693.94,230.94,693.94,395.68A298.28,298.28,0,0,1,395.65,694Zm0-593.59c-163.08,0-295.28,132.21-295.27,295.29S232.59,690.93,395.67,690.92,691,558.71,690.94,395.63A295.28,295.28,0,0,0,395.65,100.36Z" transform="translate(0 -0.01)"/><circle class="cls-1" cx="394.29" cy="70.5" r="39.7" transform="translate(65.63 299.45) rotate(-45)"/><circle class="cls-1" cx="397.02" cy="720.79" r="39.7"/><path class="cls-2" d="M640.77,164.78A16.18,16.18,0,1,1,636,153.34,16.17,16.17,0,0,1,640.77,164.78Z" transform="translate(0 -0.01)"/><path class="cls-1" d="M638.55,150.82a19.77,19.77,0,1,0,5.76,14A19.77,19.77,0,0,0,638.55,150.82Zm-25.39,25.39a16.2,16.2,0,1,1,11.43,4.73A16,16,0,0,1,613.16,176.21Z" transform="translate(0 -0.01)"/><path class="cls-2" d="M624.59,640.77A16.18,16.18,0,1,1,636,636,16.17,16.17,0,0,1,624.59,640.77Z" transform="translate(0 -0.01)"/><path class="cls-1" d="M638.55,638.55a19.75,19.75,0,1,0-14,5.77A19.76,19.76,0,0,0,638.55,638.55Zm-25.39-25.38a16.15,16.15,0,1,1-4.74,11.42A16.15,16.15,0,0,1,613.16,613.17Z" transform="translate(0 -0.01)"/><path class="cls-2" d="M164.77,148.6a16.17,16.17,0,1,1-11.44,4.74A16,16,0,0,1,164.77,148.6Z" transform="translate(0 -0.01)"/><path class="cls-1" d="M150.82,150.82a19.75,19.75,0,1,0,14-5.77A19.75,19.75,0,0,0,150.82,150.82Zm25.38,25.39a16.15,16.15,0,1,1,4.74-11.43,16,16,0,0,1-4.74,11.43Z" transform="translate(0 -0.01)"/><path class="cls-2" d="M148.6,628.14a16.17,16.17,0,1,1,4.73,11.44A16,16,0,0,1,148.6,628.14Z" transform="translate(0 -0.01)"/><path class="cls-1" d="M150.82,642.1a19.75,19.75,0,1,0-5.77-14A19.76,19.76,0,0,0,150.82,642.1Zm25.38-25.43a16.15,16.15,0,1,1-11.43-4.74A16,16,0,0,1,176.2,616.67Z" transform="translate(0 -0.01)"/><circle class="cls-2" cx="677.87" cy="113.42" r="31.5"/><path class="cls-1" d="M677.87,146.43A33,33,0,0,1,654.54,90.1h0a33,33,0,1,1,23.33,56.33Zm0-63a29.83,29.83,0,0,0-21.21,8.78h0a30,30,0,1,0,21.21-8.78Z" transform="translate(0 -0.01)"/><circle class="cls-1" cx="677.87" cy="113.42" r="18.78"/><circle class="cls-2" cx="110.21" cy="681.09" r="31.5"/><path class="cls-1" d="M110.21,714.08a33,33,0,1,1,23.33-9.65A33,33,0,0,1,110.21,714.08Zm0-63a30,30,0,1,0,21.21,8.77,30,30,0,0,0-21.21-8.77Z" transform="translate(0 -0.01)"/><path class="cls-1" d="M123.49,694.39a18.77,18.77,0,0,1-30.9-6.72,18.79,18.79,0,0,0,24.13-24.13,18.76,18.76,0,0,1,6.77,30.9Z" transform="translate(0 -0.01)"/><path class="cls-1" d="M395.65,634.19c-131.74,0-238.53-106.8-238.52-238.54s106.8-238.52,238.54-238.52,238.52,106.8,238.52,238.54A238.53,238.53,0,0,1,395.65,634.19ZM228,228l1.06,1.06c-92,92-92,241.13,0,333.12s241.13,92,333.12,0,92-241.13,0-333.12a235.55,235.55,0,0,0-333.12,0Z" transform="translate(0 -0.01)"/><circle class="cls-1" cx="720.77" cy="394.25" r="39.7"/><circle class="cls-1" cx="70.5" cy="397.02" r="39.7" transform="translate(-260.09 166.13) rotate(-45)"/></svg>