<svg id="Object" xmlns="http://www.w3.org/2000/svg" xmlns:xlink="http://www.w3.org/1999/xlink" viewBox="0 0 791.31 791.3"><defs><style>.cls-1{fill:#fff;}.cls-2{fill:none;}.cls-3{fill:url(#linear-gradient);}.cls-4{fill:url(#linear-gradient-2);}.cls-5{fill:url(#linear-gradient-3);}.cls-6{fill:url(#linear-gradient-4);}.cls-7{fill:url(#linear-gradient-5);}.cls-8{fill:url(#linear-gradient-6);}.cls-9{fill:url(#linear-gradient-7);}.cls-10{fill:url(#linear-gradient-8);}.cls-11{fill:url(#linear-gradient-9);}.cls-12{fill:url(#linear-gradient-10);}.cls-13{fill:url(#linear-gradient-11);}.cls-14{fill:url(#linear-gradient-12);}</style><linearGradient id="linear-gradient" x1="354.59" y1="70.5" x2="433.99" y2="70.5" gradientTransform="translate(165.34 -258.15) rotate(45)" gradientUnits="userSpaceOnUse"><stop offset="0" stop-color="#fff"/><stop offset="1"/></linearGradient><linearGradient id="linear-gradient-2" x1="357.31" y1="720.79" x2="436.73" y2="720.79" gradientTransform="matrix(1, 0, 0, 1, 0, 0)" xlink:href="#linear-gradient"/><linearGradient id="linear-gradient-3" x1="608.41" y1="164.81" x2="640.77" y2="164.81" gradientTransform="matrix(1, 0, 0, 1, 0, 0)" xlink:href="#linear-gradient"/><linearGradient id="linear-gradient-4" x1="604.77" y1="164.77" x2="644.31" y2="164.77" gradientTransform="matrix(1, 0, 0, 1, 0, 0)" xlink:href="#linear-gradient"/><linearGradient id="linear-gradient-5" x1="608.38" y1="624.59" x2="640.74" y2="624.59" gradientTransform="matrix(1, 0, 0, 1, 0, 0)" xlink:href="#linear-gradient"/><linearGradient id="linear-gradient-6" x1="604.84" y1="624.56" x2="644.36" y2="624.56" gradientTransform="matrix(1, 0, 0, 1, 0, 0)" xlink:href="#linear-gradient"/><linearGradient id="linear-gradient-7" x1="148.6" y1="164.77" x2="180.94" y2="164.77" gradientTransform="matrix(1, 0, 0, 1, 0, 0)" xlink:href="#linear-gradient"/><linearGradient id="linear-gradient-8" x1="145.02" y1="164.8" x2="184.52" y2="164.8" gradientTransform="matrix(1, 0, 0, 1, 0, 0)" xlink:href="#linear-gradient"/><linearGradient id="linear-gradient-9" x1="148.6" y1="628.15" x2="180.94" y2="628.15" gradientTransform="matrix(1, 0, 0, 1, 0, 0)" xlink:href="#linear-gradient"/><linearGradient id="linear-gradient-10" x1="659.09" y1="113.42" x2="696.65" y2="113.42" gradientTransform="matrix(1, 0, 0, 1, 0, 0)" xlink:href="#linear-gradient"/><linearGradient id="linear-gradient-11" x1="681.06" y1="394.25" x2="760.48" y2="394.25" gradientTransform="matrix(1, 0, 0, 1, 0, 0)" xlink:href="#linear-gradient"/><linearGradient id="linear-gradient-12" x1="30.8" y1="397.02" x2="110.2" y2="397.02" gradientTransform="translate(301.39 66.43) rotate(45)" xlink:href="#linear-gradient"/></defs><path class="cls-1" d="M376.84,630.3C282,699.69,192.53,739.73,131.34,739.73c-24.91,0-45.13-6.63-59.13-20.63C23.7,670.59,63.6,547.22,161.84,413.34a5.21,5.21,0,0,1-1.27-3.3l-.07-.11C127.55,454.64,100.55,499,81.09,540.79c-39.17,84.26-43.1,148.34-11,180.43,14.36,14.36,35.12,21.51,61.24,21.51,32.24,0,72.67-10.9,119.19-32.56,41.43-19.29,85.35-46,129.65-78.51A5.49,5.49,0,0,1,376.84,630.3Z" transform="translate(0 -0.01)"/><path class="cls-1" d="M721.22,70.14c-32.1-32.14-96.17-28.22-180.43,11-41.13,19.15-84.72,45.6-128.71,77.83a5.43,5.43,0,0,1,2.08,2.29C509.13,91.72,598.74,51.58,660,51.58c24.87,0,45.1,6.64,59.1,20.63,48.1,48.11,9.26,169.82-87.2,302.41a3.85,3.85,0,0,1,.62,1.5,14.07,14.07,0,0,1,.25,2.55c32-43.78,58.33-87.15,77.39-128.1C749.38,166.31,753.32,102.28,721.22,70.14Z" transform="translate(0 -0.01)"/><path class="cls-1" d="M611.49,177.69l-48.85,48.85.06,0a5.4,5.4,0,0,1,1.74,2.4l49.22-49.22A4.63,4.63,0,0,1,611.49,177.69Z" transform="translate(0 -0.01)"/><path class="cls-1" d="M655,134.19l-17.18,17.18a5.56,5.56,0,0,1,2.4,1.84l17.1-17.1A5.24,5.24,0,0,1,655,134.19Z" transform="translate(0 -0.01)"/><path class="cls-1" d="M790.86.44a1.51,1.51,0,0,0-2.12,0L698.82,90.36a5.6,5.6,0,0,1,1.77,2.47L790.86,2.56h0A1.49,1.49,0,0,0,790.86.44Z" transform="translate(0 -0.01)"/><path class="cls-1" d="M178.5,614.93l50.72-50.73a4.61,4.61,0,0,1-1.85-2.39L176,613.22A7.21,7.21,0,0,1,178.5,614.93Z" transform="translate(0 -0.01)"/><path class="cls-1" d="M87.34,701.85.44,788.75h0a1.49,1.49,0,0,0,0,2.11,1.51,1.51,0,0,0,2.12,0l87.09-87.09A5.44,5.44,0,0,1,87.34,701.85Z" transform="translate(0 -0.01)"/><path class="cls-1" d="M133.19,659.78a2.41,2.41,0,0,1,.21.24L152,641.42a5.62,5.62,0,0,1-1.68-1.65,4.25,4.25,0,0,1-.31-.6l-19.31,19.31A5.28,5.28,0,0,1,133.19,659.78Z" transform="translate(0 -0.01)"/><path class="cls-2" d="M395.65,158.61c-130.91,0-237,106.13-237,237s106.13,237,237,237,237-106.13,237-237S526.56,158.61,395.65,158.61ZM210.77,356.83c-4.14,3.58-6,8.76-9.17,13.07a117,117,0,0,1-12.74,13.86,59.21,59.21,0,0,0-4.37,4.76,4,4,0,0,1-.18,2.57c-2.92,7.13-6.83,19.41-14.91,23.07-2.79,3.27-9.41.42-8.78-3.83a4.3,4.3,0,0,1,1.73-4.25l.05-.08c4.79-10.16,10.25-20.13,18.23-28.17,4.79-4.83,10.12-9.4,13.86-15.15,2.93-4.51,5-9.32,9.21-12.92C208.55,345.57,215.65,352.62,210.77,356.83ZM348.12,213.29c-15.32,15.57-25.91,35.29-42.65,49.53-4.88,4.15-12-2.89-7.07-7.07,16.74-14.24,27.32-34,42.65-49.53C345.57,201.63,352.64,208.7,348.12,213.29Z" transform="translate(0 -0.01)"/><path class="cls-1" d="M395.65,753.89c-197.9-.13-358.23-160.66-358.1-358.56A358.33,358.33,0,0,1,256.21,65.57C438.7-11,648.7,74.87,725.27,257.36c76.31,181.86-8.69,391.19-190.18,468.38A356,356,0,0,1,395.65,753.89Zm0-713.47c-196.19,0-355.24,159.05-355.23,355.25a355.21,355.21,0,0,0,104,251.18C283.07,785.7,508,785.91,646.85,647.3s139-363.53.45-502.38l-.46-.46A352.89,352.89,0,0,0,395.65,40.42Z" transform="translate(0 -0.01)"/><path class="cls-1" d="M155.76,613.64a324.09,324.09,0,0,1-1.4-434.41,5.46,5.46,0,0,1-2-2.26,327.1,327.1,0,0,0,.94,438.44A4.73,4.73,0,0,1,155.76,613.64Z" transform="translate(0 -0.01)"/><path class="cls-1" d="M612.34,636.73C489.68,747.17,303,747.46,180,637.65a4.21,4.21,0,0,1-2.28,2,327.21,327.21,0,0,0,436.6-.59A5.78,5.78,0,0,1,612.34,636.73Z" transform="translate(0 -0.01)"/><path class="cls-1" d="M638.36,176.33a4.49,4.49,0,0,1-2.27,2c111,122.57,111.57,309.49,1.75,432.74a6.47,6.47,0,0,1,1.86,2.45C750.94,489.16,750.47,300.19,638.36,176.33Z" transform="translate(0 -0.01)"/><path class="cls-1" d="M613.2,151.35C489,40.53,300.51,40.91,176.75,152.54a4.36,4.36,0,0,1,1.08.79,4.84,4.84,0,0,1,1,1.4,324.14,324.14,0,0,1,432.53-1A4.61,4.61,0,0,1,613.2,151.35Z" transform="translate(0 -0.01)"/><path class="cls-1" d="M395.65,694C230.91,694,97.37,560.4,97.38,395.66S230.93,97.39,395.67,97.39,693.94,230.94,693.94,395.68A298.28,298.28,0,0,1,395.65,694Zm0-593.59c-163.08,0-295.28,132.21-295.27,295.29S232.59,690.93,395.67,690.92,691,558.71,690.94,395.63A295.28,295.28,0,0,0,395.65,100.36Z" transform="translate(0 -0.01)"/><circle class="cls-3" cx="394.29" cy="70.5" r="39.7" transform="translate(65.63 299.45) rotate(-45)"/><circle class="cls-4" cx="397.02" cy="720.79" r="39.7"/><path class="cls-5" d="M640.77,164.78A16.18,16.18,0,1,1,636,153.34,16.17,16.17,0,0,1,640.77,164.78Z" transform="translate(0 -0.01)"/><path class="cls-6" d="M638.55,150.82a19.77,19.77,0,1,0,5.76,14A19.77,19.77,0,0,0,638.55,150.82Zm-25.39,25.39a16.2,16.2,0,1,1,11.43,4.73A16,16,0,0,1,613.16,176.21Z" transform="translate(0 -0.01)"/><path class="cls-7" d="M624.59,640.77A16.18,16.18,0,1,1,636,636,16.17,16.17,0,0,1,624.59,640.77Z" transform="translate(0 -0.01)"/><path class="cls-8" d="M638.55,638.55a19.75,19.75,0,1,0-14,5.77A19.76,19.76,0,0,0,638.55,638.55Zm-25.39-25.38a16.15,16.15,0,1,1-4.74,11.42A16.15,16.15,0,0,1,613.16,613.17Z" transform="translate(0 -0.01)"/><path class="cls-9" d="M164.77,148.6a16.17,16.17,0,1,1-11.44,4.74A16,16,0,0,1,164.77,148.6Z" transform="translate(0 -0.01)"/><path class="cls-10" d="M150.82,150.82a19.75,19.75,0,1,0,14-5.77A19.75,19.75,0,0,0,150.82,150.82Zm25.38,25.39a16.15,16.15,0,1,1,4.74-11.43,16,16,0,0,1-4.74,11.43Z" transform="translate(0 -0.01)"/><path class="cls-11" d="M148.6,628.14a16.17,16.17,0,1,1,4.73,11.44A16,16,0,0,1,148.6,628.14Z" transform="translate(0 -0.01)"/><path class="cls-2" d="M150.82,642.1a19.75,19.75,0,1,0-5.77-14A19.76,19.76,0,0,0,150.82,642.1Zm25.38-25.43a16.15,16.15,0,1,1-11.43-4.74A16,16,0,0,1,176.2,616.67Z" transform="translate(0 -0.01)"/><circle class="cls-2" cx="677.87" cy="113.42" r="31.5"/><path class="cls-2" d="M677.87,146.43A33,33,0,0,1,654.54,90.1h0a33,33,0,1,1,23.33,56.33Zm0-63a29.83,29.83,0,0,0-21.21,8.78h0a30,30,0,1,0,21.21-8.78Z" transform="translate(0 -0.01)"/><circle class="cls-12" cx="677.87" cy="113.42" r="18.78"/><circle class="cls-2" cx="110.21" cy="681.09" r="31.5"/><path class="cls-1" d="M110.21,714.08a33,33,0,1,1,23.33-9.65A33,33,0,0,1,110.21,714.08Zm0-63a30,30,0,1,0,21.21,8.77,30,30,0,0,0-21.21-8.77Z" transform="translate(0 -0.01)"/><path class="cls-1" d="M123.49,694.39a18.77,18.77,0,0,1-30.9-6.72,18.79,18.79,0,0,0,24.13-24.13,18.76,18.76,0,0,1,6.77,30.9Z" transform="translate(0 -0.01)"/><path class="cls-1" d="M395.65,634.19c-131.74,0-238.53-106.8-238.52-238.54s106.8-238.52,238.54-238.52,238.52,106.8,238.52,238.54A238.53,238.53,0,0,1,395.65,634.19ZM228,228l1.06,1.06c-92,92-92,241.13,0,333.12s241.13,92,333.12,0,92-241.13,0-333.12a235.55,235.55,0,0,0-333.12,0Z" transform="translate(0 -0.01)"/><circle class="cls-13" cx="720.77" cy="394.25" r="39.7"/><circle class="cls-14" cx="70.5" cy="397.02" r="39.7" transform="translate(-260.09 166.13) rotate(-45)"/></svg>